<svg xmlns="http://www.w3.org/2000/svg" viewBox="0 0 512 512" width="512" height="512">
  <defs>
    <radialGradient id="bg" cx="50%" cy="36%" r="78%">
      <stop offset="0%" stop-color="#17223e"/>
      <stop offset="100%" stop-color="#0a0e1a"/>
    </radialGradient>
  </defs>
  <rect width="512" height="512" fill="url(#bg)"/>
  <circle cx="256" cy="214" r="156" fill="#00d97e" opacity="0.12"/>
  <g transform="translate(256,256) scale(0.8) translate(-256,-256)">
    <path d="M186 168 C 132 168, 132 232, 192 240" fill="none" stroke="#ffc93c" stroke-width="18" stroke-linecap="round"/>
    <path d="M326 168 C 380 168, 380 232, 320 240" fill="none" stroke="#ffc93c" stroke-width="18" stroke-linecap="round"/>
    <path d="M182 152 H330 V198 C330 264 300 302 256 302 C212 302 182 264 182 198 Z" fill="#ffc93c"/>
    <rect x="244" y="300" width="24" height="34" fill="#ffc93c"/>
    <rect x="208" y="332" width="96" height="16" rx="6" fill="#ffc93c"/>
    <rect x="192" y="352" width="128" height="22" rx="9" fill="#ffc93c"/>
  </g>
</svg>
