<svg xmlns="http://www.w3.org/2000/svg" viewBox="0 0 512 512" width="512" height="512">
  <defs>
    <linearGradient id="bg" x1="0" y1="0" x2="0" y2="1">
      <stop offset="0%" stop-color="#1b2a4e"></stop>
      <stop offset="100%" stop-color="#0a0f1f"></stop>
    </linearGradient>
    <radialGradient id="glow" cx="50%" cy="40%" r="62%">
      <stop offset="0%" stop-color="#3ad29f" stop-opacity="0.28"></stop>
      <stop offset="100%" stop-color="#3ad29f" stop-opacity="0"></stop>
    </radialGradient>
    <linearGradient id="gold" x1="0" y1="0" x2="0" y2="1">
      <stop offset="0%" stop-color="#ffe08a"></stop>
      <stop offset="45%" stop-color="#ffc83c"></stop>
      <stop offset="100%" stop-color="#e8a01f"></stop>
    </linearGradient>
    <linearGradient id="goldEdge" x1="0" y1="0" x2="0" y2="1">
      <stop offset="0%" stop-color="#fff2c4"></stop>
      <stop offset="100%" stop-color="#d98e16"></stop>
    </linearGradient>
  </defs>

  <rect width="512" height="512" rx="112" fill="url(#bg)"></rect>
  <rect width="512" height="512" rx="112" fill="url(#glow)"></rect>

  
  <path d="M176 150 C112 150, 112 244, 196 256" fill="none" stroke="url(#goldEdge)" stroke-width="22" stroke-linecap="round"></path>
  <path d="M336 150 C400 150, 400 244, 316 256" fill="none" stroke="url(#goldEdge)" stroke-width="22" stroke-linecap="round"></path>

  
  <path d="M168 124 H344 V196 C344 268 308 314 256 314 C204 314 168 268 168 196 Z" fill="url(#gold)"></path>
  
  <path d="M200 142 H252 V196 C252 244 232 280 210 292 C190 270 186 232 186 196 V142 Z" fill="#ffffff" opacity="0.16"></path>

  
  <g transform="translate(256,210)" fill="none" stroke="#0a0f1f" stroke-width="9" opacity="0.42" stroke-linejoin="round" stroke-linecap="round">
    <polygon points="0,-26 24,-8 15,21 -15,21 -24,-8" fill="#0a0f1f" opacity="0.42" stroke="none"></polygon>
  </g>

  
  <rect x="240" y="312" width="32" height="40" rx="6" fill="url(#gold)"></rect>
  <rect x="200" y="350" width="112" height="20" rx="9" fill="url(#goldEdge)"></rect>
  <rect x="180" y="372" width="152" height="28" rx="12" fill="url(#gold)"></rect>

  
  <text x="256" y="448" text-anchor="middle" font-family="Helvetica, Arial, sans-serif" font-size="60" font-weight="700" letter-spacing="4" fill="#eef2fb">26</text>
</svg>